<svg width="16" height="17" viewBox="0 0 16 17" fill="none" xmlns="http://www.w3.org/2000/svg">
<path d="M10.6673 12.0818L12.0451 10.6173C12.2307 10.4225 12.4654 10.2892 12.7209 10.2335C12.9764 10.1778 13.2416 10.2021 13.4844 10.3035L15.1635 11.0161C15.4088 11.122 15.6191 11.3026 15.768 11.5353C15.9169 11.768 15.9976 12.0423 16 12.3237V15.5926C15.9986 15.784 15.9607 15.9731 15.8887 16.1485C15.8167 16.324 15.712 16.4821 15.581 16.6135C15.45 16.7448 15.2953 16.8466 15.1263 16.9127C14.9573 16.9788 14.7775 17.0079 14.5976 16.9982C2.83136 16.2202 0.457192 5.62903 0.00819117 1.57562C-0.0126518 1.37657 0.00639187 1.17509 0.0640691 0.984422C0.121746 0.793756 0.21675 0.618231 0.34283 0.469395C0.468911 0.320559 0.62321 0.201785 0.795577 0.120886C0.967944 0.0399873 1.15447 -0.0012024 1.34289 2.67191e-05H4.31368C4.57878 0.000860796 4.83758 0.0859768 5.0568 0.244427C5.27602 0.402877 5.44563 0.627415 5.54382 0.889161L6.21424 2.67397C6.31281 2.93094 6.33796 3.2131 6.28654 3.48518C6.23513 3.75726 6.10944 4.00721 5.92516 4.2038L4.5474 5.66825C4.5474 5.66825 5.34084 11.3757 10.6673 12.0818Z" fill="#E27D60"/>
</svg>
