<svg width="17" height="12" viewBox="0 0 17 12" fill="none" xmlns="http://www.w3.org/2000/svg">
<path d="M15.3 0.5H2.50002C1.62002 0.5 0.908024 1.11875 0.908024 1.875L0.900024 10.125C0.900024 10.8813 1.62002 11.5 2.50002 11.5H15.3C16.18 11.5 16.9 10.8813 16.9 10.125V1.875C16.9 1.11875 16.18 0.5 15.3 0.5ZM14.98 3.42188L9.32402 6.46063C9.06802 6.59812 8.73202 6.59812 8.47602 6.46063L2.82002 3.42188C2.73981 3.38318 2.66956 3.33089 2.61354 3.26819C2.55751 3.20548 2.51687 3.13366 2.49408 3.05707C2.4713 2.98048 2.46683 2.90071 2.48095 2.82259C2.49507 2.74447 2.52749 2.66962 2.57625 2.60258C2.62501 2.53554 2.68908 2.4777 2.76461 2.43256C2.84013 2.38742 2.92552 2.35591 3.01562 2.33996C3.10572 2.324 3.19865 2.32391 3.28879 2.33971C3.37893 2.35551 3.4644 2.38687 3.54002 2.43187L8.90002 5.3125L14.26 2.43187C14.3357 2.38687 14.4211 2.35551 14.5113 2.33971C14.6014 2.32391 14.6943 2.324 14.7844 2.33996C14.8745 2.35591 14.9599 2.38742 15.0354 2.43256C15.111 2.4777 15.175 2.53554 15.2238 2.60258C15.2726 2.66962 15.305 2.74447 15.3191 2.82259C15.3332 2.90071 15.3288 2.98048 15.306 3.05707C15.2832 3.13366 15.2425 3.20548 15.1865 3.26819C15.1305 3.33089 15.0602 3.38318 14.98 3.42188Z" fill="#E27D60"/>
</svg>
