<svg width="15" height="21" viewBox="0 0 15 21" fill="none" xmlns="http://www.w3.org/2000/svg">
<path d="M7.5 0C5.5116 0.00258035 3.60531 0.872603 2.1993 2.41922C0.793282 3.96583 0.00235375 6.06276 7.97923e-06 8.25C-0.00237354 10.0374 0.528403 11.7763 1.51092 13.2C1.51092 13.2 1.71546 13.4963 1.74887 13.539L7.5 21L13.2539 13.5353C13.2839 13.4955 13.4891 13.2 13.4891 13.2L13.4898 13.1977C14.4718 11.7747 15.0023 10.0366 15 8.25C14.9976 6.06276 14.2067 3.96583 12.8007 2.41922C11.3947 0.872603 9.4884 0.00258035 7.5 0ZM7.5 11.25C6.9606 11.25 6.43331 11.0741 5.98481 10.7444C5.53631 10.4148 5.18675 9.94623 4.98033 9.39805C4.77391 8.84987 4.7199 8.24667 4.82513 7.66473C4.93037 7.08279 5.19011 6.54824 5.57153 6.12868C5.95294 5.70912 6.4389 5.4234 6.96794 5.30764C7.49697 5.19189 8.04534 5.2513 8.54368 5.47836C9.04202 5.70542 9.46797 6.08994 9.76764 6.58329C10.0673 7.07664 10.2273 7.65666 10.2273 8.25C10.2264 9.04534 9.93874 9.80783 9.42747 10.3702C8.91621 10.9326 8.22304 11.249 7.5 11.25Z" fill="#E27D60"/>
</svg>
